<?xml version="1.0" encoding="UTF-8" standalone="no"?>
<svg width="125px" height="30px" viewBox="0 0 125 30" version="1.1" xmlns="http://www.w3.org/2000/svg" xmlns:xlink="http://www.w3.org/1999/xlink">
    <!-- Generator: sketchtool 39.1 (31721) - http://www.bohemiancoding.com/sketch -->
    <title>6F4C2DDF-DA28-45DE-A313-19238FBCCCE7</title>
    <desc>Created with sketchtool.</desc>
    <defs></defs>
    <g id="1.-Main/Menu/Bugfix" stroke="none" stroke-width="1" fill="none" fill-rule="evenodd" opacity="0.839727146">
        <g id="Mobile-pravki" transform="translate(-94.000000, -45.000000)" fill="#FFFFFF">
            <g id="Components/Mobile/menu_open-Copy" transform="translate(0.000000, 28.000000)">
                <g id="Components/Mobile/menu">
                    <g id="Symbols/UNN_Logo-w-text" transform="translate(94.000000, 17.000000)">
                        <g id="UNN_Logo-w-text">
                            <path d="M41.0547044,9.75260229 L41.155538,9.75260229 L42.5560056,6.38297872 L44.2379672,6.38297872 L41.5882825,11.9579705 C41.3754115,12.401563 41.1289292,12.7262111 40.8572384,12.944509 C40.5869482,13.1586088 40.2620397,13.2677578 39.8867144,13.2677578 C39.4245601,13.2677578 39.0114222,13.1907938 38.6585043,13.0354664 L38.9974175,11.7564648 C39.0940498,11.7970458 39.1920825,11.8264321 39.2957171,11.8488216 C39.3993517,11.8684124 39.4987849,11.8796072 39.5940167,11.8796072 C39.9329298,11.8796072 40.1444004,11.7536661 40.2396322,11.5045827 L40.3194589,11.3044763 L37.5591373,6.38297872 L39.3923494,6.38297872 L41.0547044,9.75260229 Z M47.3557872,9.02074468 L50.3065724,9.02074468 L50.3065724,6.38297872 L51.8274802,6.38297872 L51.8274802,13.1264239 L50.3065724,13.1264239 L50.3065724,10.42009 L47.3557872,10.42009 L47.3557872,13.1264239 L45.8348794,13.1264239 L45.8348794,6.38297872 L47.3557872,6.38297872 L47.3557872,9.02074468 Z M55.600719,10.8734779 L58.8638085,6.38297872 L60.1956532,6.38297872 L60.1956532,13.1250245 L58.6943519,13.1250245 L58.6943519,8.88920622 L55.5895153,13.1250245 L54.1106215,13.1250245 L54.1106215,6.38297872 L55.600719,6.38297872 L55.600719,10.8734779 Z M67.1073399,6.87694763 C67.512075,7.20439444 67.7151428,7.65358429 67.7151428,8.22451718 C67.7151428,8.5057856 67.6549227,8.75766776 67.5400843,8.97876432 C67.4224451,9.19986088 67.2613913,9.36358429 67.0611244,9.47133388 L67.0611244,9.56369067 C67.3902343,9.67004092 67.6493208,9.86175123 67.8523886,10.1374223 C68.051255,10.4186907 68.1506882,10.7447381 68.1506882,11.112766 C68.1506882,11.3898363 68.0974704,11.6459165 68.0050396,11.895 C67.9070068,12.1384861 67.7557563,12.3511866 67.5484871,12.5345008 C67.3454193,12.7150164 67.0863328,12.8563502 66.7684267,12.9640998 C66.4575229,13.0704501 66.0765957,13.1250245 65.6466522,13.1250245 L62.3863636,13.1250245 L62.3863636,6.38297872 L65.3679591,6.38297872 C66.1200102,6.38297872 66.6998038,6.54670213 67.1073399,6.87694763 Z M65.6718606,11.8348282 C66.3370827,11.8348282 66.667593,11.5731506 66.667593,11.0427987 C66.667593,10.7853191 66.5793636,10.5908101 66.4043051,10.4634697 C66.2320476,10.3319313 65.9841649,10.2689607 65.6606568,10.2689607 L63.8862644,10.2689607 L63.8862644,11.8348282 L65.6718606,11.8348282 Z M65.4281792,9.03893617 C65.6830643,9.03893617 65.8847317,8.97876432 66.0275793,8.85282324 C66.1746284,8.72688216 66.2432514,8.56036007 66.2432514,8.34486088 C66.2432514,7.89707038 65.9561555,7.66897709 65.3791629,7.66897709 L63.8862644,7.66897709 L63.8862644,9.03893617 L65.4281792,9.03893617 Z M75.0727954,7.74454173 L71.5170082,7.74454173 L71.5170082,9.00954992 L74.6876668,9.00954992 L74.6876668,10.3277332 L71.5170082,10.3277332 L71.5170082,11.7676596 L75.2422519,11.7676596 L75.2422519,13.1264239 L70.0255102,13.1264239 L70.0255102,6.38297872 L75.0727954,6.38297872 L75.0727954,7.74454173 Z M81.7652258,6.55789689 C82.0929353,6.67824059 82.3786307,6.84196399 82.6167101,7.05326514 C82.8533892,7.26316694 83.0368504,7.51784779 83.1628925,7.81590835 C83.2917355,8.11536825 83.3603584,8.44981178 83.3603584,8.81783961 C83.3603584,9.20685761 83.2861336,9.55389525 83.1390845,9.85895254 C82.9962369,10.1654092 82.79597,10.4256874 82.5424854,10.6355892 C82.2932021,10.8468903 81.9977035,11.0078151 81.6559894,11.116964 C81.3086734,11.2289116 80.93895,11.2834861 80.5454186,11.2834861 L79.1771618,11.2834861 L79.1771618,13.1250245 L77.6646568,13.1250245 L77.6646568,6.38297872 L80.6686597,6.38297872 C81.067793,6.38297872 81.4319146,6.44035188 81.7652258,6.55789689 Z M80.5454186,9.9443126 C80.9501537,9.9443126 81.2680599,9.84355974 81.4949356,9.64065466 C81.7190104,9.44194763 81.8366497,9.16767594 81.8366497,8.82903437 C81.8366497,8.4903928 81.7330151,8.22731588 81.5243454,8.02860884 C81.3226781,7.82850245 81.0159757,7.73334697 80.6056387,7.73334697 L79.1771618,7.73334697 L79.1771618,9.9443126 L80.5454186,9.9443126 Z M89.9813651,7.92785597 C89.6774636,7.81870704 89.3357495,7.76413257 88.9604242,7.76413257 C88.6299138,7.76413257 88.3344152,7.81031097 88.0669259,7.91666121 C87.803638,8.02021277 87.5767622,8.16854337 87.3876991,8.36025368 C87.2028374,8.55056465 87.0543878,8.77725859 86.9535542,9.04033552 C86.8555214,9.2992144 86.8023037,9.58468085 86.8023037,9.89253682 C86.8023037,10.2185843 86.8555214,10.5082488 86.961957,10.7699264 C87.0655916,11.0330033 87.2098397,11.2540998 87.3989028,11.4402128 C87.585165,11.623527 87.8120408,11.7676596 88.0697268,11.8712111 C88.3344152,11.976162 88.624312,12.0279378 88.9422181,12.0279378 C89.3217448,12.0279378 89.6774636,11.9621686 90.0107749,11.8334288 C90.3454866,11.6990917 90.6409853,11.5115794 90.9028727,11.2624959 L91.7599589,12.3176023 C90.9939031,13.0438625 90.0247796,13.4076923 88.8567896,13.4076923 C88.3344152,13.4076923 87.8554553,13.3223322 87.4185094,13.1586088 C86.980163,12.9948854 86.6062382,12.7597954 86.2939339,12.4561375 C85.9844306,12.1510802 85.7393488,11.7844517 85.5670912,11.352054 C85.3920328,10.9238543 85.3038033,10.4424795 85.3038033,9.91212766 C85.3038033,9.43075286 85.3892319,8.97456628 85.5614894,8.54776596 C85.730946,8.11676759 85.9802292,7.73894435 86.2995358,7.41989362 C86.6230438,7.09664484 87.0109733,6.84336334 87.4731276,6.65725041 C87.9240782,6.47393617 88.4436517,6.38297872 89.0206443,6.38297872 C89.5444192,6.38297872 90.0247796,6.45994272 90.4631259,6.61806874 C90.8972709,6.77759411 91.2866008,7.00708674 91.6283149,7.30794599 L90.7908353,8.40643208 C90.5583577,8.19233224 90.2880675,8.03700491 89.9813651,7.92785597 Z M95.0724439,10.8734779 L98.3383343,6.38297872 L99.667378,6.38297872 L99.667378,13.1250245 L98.1688777,13.1250245 L98.1688777,8.88920622 L95.0640411,13.1250245 L93.5795455,13.1250245 L93.5795455,6.38297872 L95.0724439,6.38297872 L95.0724439,10.8734779 Z M107.97393,7.75293781 L105.66596,7.75293781 L105.66596,13.1264239 L104.166059,13.1264239 L104.166059,7.75293781 L101.855288,7.75293781 L101.855288,6.38297872 L107.97393,6.38297872 L107.97393,7.75293781 Z M114.541719,7.74454173 L110.988733,7.74454173 L110.988733,9.00954992 L114.162193,9.00954992 L114.162193,10.3277332 L110.988733,10.3277332 L110.988733,11.7676596 L114.713977,11.7676596 L114.713977,13.1264239 L109.494434,13.1264239 L109.494434,6.38297872 L114.541719,6.38297872 L114.541719,7.74454173 Z M122.612827,7.75293781 L120.304857,7.75293781 L120.304857,13.1264239 L118.802155,13.1264239 L118.802155,7.75293781 L116.496985,7.75293781 L116.496985,6.38297872 L122.612827,6.38297872 L122.612827,7.75293781 Z M43.8534558,24.6171849 L42.3409508,24.6171849 L42.3409508,19.2227087 L40.2864649,19.2227087 C40.2864649,19.799239 40.280863,20.3309902 40.2724602,20.8263584 C40.2626569,21.318928 40.2290457,21.7695172 40.1800293,22.173928 C40.131013,22.5811375 40.0511863,22.9421686 39.9475517,23.2612193 C39.8439171,23.5788707 39.7010694,23.8545417 39.5204091,24.0812357 C39.3453507,24.2967349 39.1324796,24.4590589 38.8747936,24.5710065 C38.6213089,24.6801555 38.3230093,24.73473 37.9812952,24.73473 C37.7642228,24.73473 37.5765601,24.7179378 37.408504,24.6857529 C37.2474502,24.6493699 37.0835955,24.5947954 36.9225417,24.5220295 L37.2614549,23.2262357 C37.3468834,23.2556219 37.4309115,23.2864075 37.5191409,23.3031997 C37.603169,23.3157938 37.6829956,23.3269885 37.7586209,23.3269885 C37.8930658,23.3269885 38.0079041,23.3031997 38.1059369,23.2500245 C38.2025691,23.2010475 38.2893981,23.1114894 38.3608219,22.9827496 C38.4560537,22.838617 38.5302785,22.6553028 38.5848968,22.4384043 C38.6367141,22.2285025 38.6787281,21.9654255 38.7081379,21.6603682 C38.7417491,21.3539116 38.7571543,20.9956792 38.7627561,20.577275 C38.7739599,20.1644681 38.7739599,19.6816939 38.7739599,19.1289525 L38.7739599,17.8723404 L43.8534558,17.8723404 L43.8534558,24.6171849 Z M50.2371662,18.134018 C50.6741121,18.3117349 51.0522383,18.5580196 51.3673436,18.875671 C51.6810483,19.1891244 51.9247297,19.5613502 52.0941862,19.9853519 C52.2720456,20.4135516 52.3602751,20.8753355 52.3602751,21.3818985 C52.3602751,21.8632733 52.2720456,22.3194599 52.0941862,22.7420622 C51.9247297,23.1716612 51.6782474,23.5410884 51.3617417,23.8629378 C51.0466365,24.1805892 50.6699107,24.431072 50.2287634,24.6143863 C49.7890166,24.8004992 49.3044548,24.8942553 48.7736776,24.8942553 C48.2485023,24.8942553 47.7695423,24.8032979 47.3325965,24.6227823 C46.899852,24.4478642 46.5203253,24.2015794 46.1996182,23.8853273 C45.8831125,23.5704746 45.6366302,23.1968494 45.4615718,22.7700491 C45.2837124,22.3376514 45.1982839,21.8786661 45.1982839,21.3818985 C45.1982839,20.8949264 45.2837124,20.4387398 45.4615718,20.0119394 C45.6366302,19.5809411 45.8831125,19.2087152 46.1996182,18.8938625 C46.5203253,18.5832079 46.899852,18.3313257 47.3325965,18.1452128 C47.7695423,17.9618985 48.2485023,17.8723404 48.7736776,17.8723404 C49.3044548,17.8723404 49.7918175,17.9577005 50.2371662,18.134018 Z M47.9011863,19.3864321 C47.6435003,19.5039771 47.4250273,19.6565057 47.2471679,19.848216 C47.0693085,20.0455237 46.9334632,20.2722177 46.8396319,20.5366939 C46.7500019,20.7969722 46.7009856,21.0782406 46.7009856,21.3818985 C46.7009856,21.6827578 46.7500019,21.9668249 46.8396319,22.2340998 C46.9334632,22.4971768 47.0693085,22.7238707 47.2527698,22.9197791 C47.4334301,23.1142881 47.6519031,23.2668167 47.9067882,23.377365 C48.1630737,23.4893126 48.4515701,23.5438871 48.7736776,23.5438871 C49.1041879,23.5438871 49.3968857,23.4865139 49.6545717,23.3717676 C49.9136582,23.25982 50.1307307,23.1030933 50.311391,22.9043863 C50.4864494,22.7098773 50.6194939,22.4775859 50.7133252,22.2173077 C50.8029551,21.9528314 50.8477701,21.6771604 50.8477701,21.3818985 C50.8477701,21.0726432 50.8001542,20.7857774 50.7077233,20.5213011 C50.6124915,20.2554255 50.4752457,20.0259329 50.3001873,19.8314239 C50.1251288,19.6355155 49.9066559,19.4843863 49.643368,19.378036 C49.3870824,19.2688871 49.0943847,19.2171113 48.7736776,19.2171113 C48.4515701,19.2171113 48.1616733,19.2716858 47.9011863,19.3864321 Z M58.5297139,19.2325041 L54.9767277,19.2325041 L54.9767277,20.2792144 L56.5298462,20.2792144 C56.909373,20.2792144 57.2622908,20.3211948 57.5885997,20.4079542 C57.9135082,20.4961129 58.1922013,20.626252 58.4260793,20.8067676 C58.655756,20.9844845 58.8378168,21.2083797 58.9694608,21.4798527 C59.0983038,21.752725 59.1641258,22.0675777 59.1641258,22.4300082 C59.1641258,22.7798445 59.0983038,23.0918985 58.9694608,23.3619722 C58.8378168,23.6362439 58.655756,23.8629378 58.4204775,24.046252 C58.1851989,24.2281669 57.9051054,24.3709002 57.5829979,24.4660556 C57.2622908,24.5654092 56.909373,24.6171849 56.5298462,24.6171849 L53.474026,24.6171849 L53.474026,17.8723404 L58.5297139,17.8723404 L58.5297139,19.2325041 Z M56.5298462,23.2668167 C56.9023706,23.2668167 57.1838646,23.187054 57.3673258,23.0401227 C57.5521876,22.8889935 57.6460189,22.6874877 57.6460189,22.4300082 C57.6460189,22.1627332 57.5521876,21.9556301 57.3645249,21.8128969 C57.1782627,21.6645663 56.909373,21.5973977 56.5676589,21.5973977 L54.9767277,21.5973977 L54.9767277,23.2668167 L56.5298462,23.2668167 Z M67.7029897,24.625581 L66.02663,24.625581 L65.5154594,23.2836088 L62.6206929,23.2836088 L62.1207259,24.625581 L60.476577,24.625581 L63.2495028,17.8723404 L64.9132583,17.8723404 L67.7029897,24.625581 Z M65.0196938,21.9556301 L64.127596,19.3920295 L64.0267623,19.3920295 L63.1192593,21.9556301 L65.0196938,21.9556301 Z M69.6170248,20.0972995 C69.6170248,20.5534861 69.7178585,20.8949264 69.9237272,21.1216203 C70.1253945,21.3511129 70.4517035,21.4644599 70.8942512,21.4644599 C71.1897499,21.4644599 71.465642,21.4280769 71.7233281,21.3469149 C71.9754122,21.2699509 72.202288,21.1636007 72.4039553,21.0208674 L72.4039553,17.8723404 L73.9164603,17.8723404 L73.9164603,24.6171849 L72.4039553,24.6171849 L72.4039553,22.3600409 C71.9305973,22.6609002 71.3395999,22.8134288 70.6421671,22.8134288 C70.2626404,22.8134288 69.9153244,22.7644517 69.6058211,22.6609002 C69.2963177,22.562946 69.0344303,22.409018 68.8103555,22.1963175 C68.5890816,21.983617 68.4168241,21.7177414 68.2991848,21.395892 C68.1759437,21.0754419 68.1157236,20.6962193 68.1157236,20.2582242 L68.1157236,17.8723404 L69.6170248,17.8723404 L69.6170248,20.0972995 Z M80.7993544,19.2339034 L77.2463681,19.2339034 L77.2463681,20.4989116 L80.4170267,20.4989116 L80.4170267,21.8170949 L77.2463681,21.8170949 L77.2463681,23.2570213 L80.9716119,23.2570213 L80.9716119,24.6185843 L75.7548701,24.6185843 L75.7548701,17.8723404 L80.7993544,17.8723404 L80.7993544,19.2339034 Z M87.4783974,18.3635106 C87.8831325,18.6937561 88.0862003,19.142946 88.0862003,19.7110802 C88.0862003,19.997946 88.0287811,20.2470295 87.9083409,20.4653273 C87.7907016,20.6920213 87.6324488,20.8557447 87.4321819,20.9606956 L87.4321819,21.0502537 C87.7612918,21.1594026 88.0259802,21.3539116 88.2206452,21.6295827 C88.4195116,21.9080524 88.5189448,22.2340998 88.5189448,22.6021277 C88.5189448,22.8763993 88.4713289,23.1380769 88.3704952,23.381563 C88.2752634,23.6250491 88.1240129,23.8377496 87.9195447,24.0210638 C87.7164769,24.2015794 87.4573904,24.3471113 87.1394842,24.4562602 C86.8229785,24.5626105 86.4504542,24.6171849 86.0177097,24.6171849 L82.7574212,24.6171849 L82.7574212,17.8723404 L85.7390166,17.8723404 C86.4910677,17.8723404 87.0736622,18.0360638 87.4783974,18.3635106 Z M86.0429181,23.3269885 C86.7081402,23.3269885 87.0386505,23.0597136 87.0386505,22.5293617 C87.0386505,22.2746809 86.9504211,22.0829705 86.7753626,21.9556301 C86.6003042,21.8240917 86.3524214,21.7555237 86.0345153,21.7555237 L84.2601229,21.7555237 L84.2601229,23.3269885 L86.0429181,23.3269885 Z M85.7964358,20.5282979 C86.0569228,20.5282979 86.2529882,20.4653273 86.3986369,20.3393863 C86.542885,20.2190426 86.6171098,20.0469231 86.6171098,19.8342226 C86.6171098,19.3864321 86.327213,19.1611375 85.7502204,19.1611375 L84.2601229,19.1611375 L84.2601229,20.5282979 L85.7964358,20.5282979 Z M94.4403348,19.4116203 C94.1364334,19.3024714 93.7947193,19.2478969 93.419394,19.2478969 C93.0860827,19.2478969 92.793385,19.2996727 92.5286966,19.4004255 C92.2626077,19.5067758 92.035732,19.6551064 91.8466689,19.8468167 C91.6590062,20.034329 91.5133576,20.2638216 91.4153249,20.5268985 C91.3144912,20.7857774 91.2640744,21.0726432 91.2640744,21.3818985 C91.2640744,21.7023486 91.3144912,21.9948118 91.4209267,22.2564894 C91.5217604,22.5195663 91.6688095,22.7406628 91.8578726,22.9239771 C92.0441348,23.1128887 92.2710105,23.2542226 92.5342984,23.3577741 C92.793385,23.462725 93.0832817,23.5172995 93.3983869,23.5172995 C93.7779137,23.5172995 94.1364334,23.4487316 94.4683442,23.3199918 C94.8044564,23.1884534 95.102756,22.9981424 95.3618425,22.7518576 L96.2189287,23.806964 C95.4528729,24.5304255 94.4837493,24.8942553 93.3157594,24.8942553 C92.793385,24.8942553 92.314425,24.8116939 91.8802801,24.6479705 C91.4419337,24.4842471 91.065208,24.2491571 90.7557046,23.9399018 C90.4434004,23.6348445 90.1983185,23.2710147 90.026061,22.8414157 C89.8510026,22.4104173 89.7599722,21.9318412 89.7599722,21.4014894 C89.7599722,20.9173159 89.8482016,20.4611293 90.0204591,20.0315303 C90.1927167,19.6033306 90.4391989,19.2283061 90.7585056,18.9036579 C91.0820136,18.5832079 91.4699431,18.332725 91.9264955,18.1466121 C92.383048,17.9632979 92.8998205,17.8723404 93.4782136,17.8723404 C94.0033889,17.8723404 94.4809484,17.9465057 94.9192947,18.1018331 C95.3562406,18.2613584 95.7455706,18.4936498 96.0844838,18.794509 L95.2498051,19.8901964 C95.0145265,19.6816939 94.7470372,19.5235679 94.4403348,19.4116203 Z M98.8920172,20.4387398 L99.6244617,20.3561784 L101.529098,17.8723404 L103.39452,17.8723404 L100.883482,21.0208674 L103.6326,24.6171849 L101.690151,24.6171849 L99.6356655,21.7401309 L98.8920172,21.7401309 L98.8920172,24.6171849 L97.3991187,24.6171849 L97.3991187,17.8723404 L98.8920172,17.8723404 L98.8920172,20.4387398 Z M108.798355,18.134018 C109.243703,18.3117349 109.619029,18.5580196 109.931333,18.875671 C110.245038,19.1891244 110.49152,19.5613502 110.663778,19.9853519 C110.836035,20.4135516 110.924264,20.8753355 110.924264,21.3818985 C110.924264,21.8632733 110.836035,22.3194599 110.663778,22.7420622 C110.49152,23.1716612 110.239436,23.5410884 109.928532,23.8629378 C109.613427,24.1805892 109.231099,24.431072 108.792753,24.6143863 C108.353006,24.8004992 107.868444,24.8942553 107.340468,24.8942553 C106.815293,24.8942553 106.333532,24.8032979 105.899387,24.6227823 C105.46104,24.4478642 105.084315,24.2015794 104.763608,23.8853273 C104.449903,23.5704746 104.197819,23.1968494 104.025561,22.7700491 C103.850503,22.3376514 103.765074,21.8786661 103.765074,21.3818985 C103.765074,20.8949264 103.850503,20.4387398 104.025561,20.0119394 C104.197819,19.5809411 104.449903,19.2087152 104.763608,18.8938625 C105.084315,18.5832079 105.46104,18.3313257 105.899387,18.1452128 C106.333532,17.9618985 106.815293,17.8723404 107.340468,17.8723404 C107.868444,17.8723404 108.358608,17.9577005 108.798355,18.134018 Z M106.467977,19.3864321 C106.210291,19.5039771 105.991818,19.6565057 105.811157,19.848216 C105.633298,20.0455237 105.497453,20.2722177 105.403621,20.5366939 C105.31119,20.7969722 105.264975,21.0782406 105.264975,21.3818985 C105.264975,21.6827578 105.31119,21.9668249 105.403621,22.2340998 C105.497453,22.4971768 105.636099,22.7238707 105.81956,22.9197791 C106.00022,23.1142881 106.215892,23.2668167 106.473579,23.377365 C106.728464,23.4893126 107.01836,23.5438871 107.340468,23.5438871 C107.668177,23.5438871 107.960875,23.4865139 108.221362,23.3717676 C108.479048,23.25982 108.700322,23.1030933 108.87538,22.9043863 C109.05324,22.7098773 109.183483,22.4775859 109.277315,22.2173077 C109.369745,21.9528314 109.41456,21.6771604 109.41456,21.3818985 C109.41456,21.0726432 109.364144,20.7857774 109.271713,20.5213011 C109.179282,20.2554255 109.044837,20.0259329 108.864177,19.8314239 C108.686317,19.6355155 108.470645,19.4843863 108.212959,19.378036 C107.951072,19.2688871 107.663976,19.2171113 107.340468,19.2171113 C107.01836,19.2171113 106.728464,19.2716858 106.467977,19.3864321 Z M122.180202,18.3980412 C122.62555,18.5757581 123.000876,18.8220429 123.31318,19.1396942 C123.626885,19.4531476 123.873367,19.8253735 124.045624,20.2493751 C124.217882,20.6775748 124.306111,21.1393587 124.306111,21.6459217 C124.306111,22.1272965 124.217882,22.5834831 124.045624,23.0060854 C123.873367,23.4356844 123.621283,23.8051116 123.310379,24.126961 C122.995274,24.4446124 122.612946,24.6950952 122.1746,24.8784095 C121.734853,25.0645224 121.250291,25.1582785 120.722315,25.1582785 C120.19714,25.1582785 119.715379,25.0673211 119.281234,24.8868055 C118.842887,24.7118874 118.466162,24.4656026 118.145455,24.1493505 C117.83175,23.8344978 117.579666,23.4608726 117.407408,23.0340723 C117.23235,22.6016746 117.146921,22.1426893 117.146921,21.6459217 C117.146921,21.1589496 117.23235,20.702763 117.407408,20.2759627 C117.579666,19.8449643 117.83175,19.4727384 118.145455,19.1578857 C118.466162,18.8472311 118.842887,18.5953489 119.281234,18.409236 C119.715379,18.2259217 120.19714,18.1363636 120.722315,18.1363636 C121.250291,18.1363636 121.740455,18.2217237 122.180202,18.3980412 Z M119.849824,19.6504553 C119.592138,19.7680003 119.373665,19.9205289 119.193004,20.1122393 C119.015145,20.3095469 118.8793,20.5362409 118.785468,20.8007172 C118.693037,21.0609954 118.646822,21.3422638 118.646822,21.6459217 C118.646822,21.946781 118.693037,22.2308481 118.785468,22.498123 C118.8793,22.7612 119.017946,22.9878939 119.201407,23.1838023 C119.382067,23.3783113 119.597739,23.5308399 119.855425,23.6413882 C120.110311,23.7533358 120.400207,23.8079103 120.722315,23.8079103 C121.050024,23.8079103 121.342722,23.7505371 121.603209,23.6357908 C121.860895,23.5238432 122.082169,23.3671165 122.257227,23.1684095 C122.435087,22.9739005 122.56533,22.7416091 122.659162,22.4813309 C122.751592,22.2168546 122.796407,21.9411836 122.796407,21.6459217 C122.796407,21.3366664 122.745991,21.0498006 122.65356,20.7853244 C122.561129,20.5194487 122.426684,20.2899561 122.246024,20.0954471 C122.068164,19.8995388 121.852492,19.7484095 121.594806,19.6420592 C121.332919,19.5329103 121.045823,19.4811345 120.722315,19.4811345 C120.400207,19.4811345 120.110311,19.535709 119.849824,19.6504553 Z M117.146921,19.2422995 L113.553321,19.2422995 L113.553321,24.6185843 L112.040816,24.6185843 L112.040816,17.8723404 L117.146921,17.8723404 L117.146921,19.2422995 Z M27.5801178,3.1369529 C25.3762746,2.03959392 23.0426559,1.21801101 20.6318735,0.692887398 C20.5816001,0.685992996 20.5313268,0.697483666 20.4904066,0.726210341 C20.4553322,0.756086083 20.4284418,0.803197829 20.4284418,0.854905844 L20.4284418,15.7996712 C20.4284418,16.9958499 19.4919546,17.9288923 18.2889016,17.9288923 C17.0893562,17.9288923 16.1516998,16.9958499 16.1516998,15.7996712 L16.1516998,0.219471796 C16.1516998,0.132142704 16.0850584,0.0597514837 15.9985414,0.0574533497 C15.3566794,0.0195341389 14.7533992,-1.77635684e-15 14.1594722,-1.77635684e-15 C12.4501784,-1.77635684e-15 10.7327005,0.144782441 9.05146623,0.430900123 C8.97196419,0.44353986 8.91233766,0.513632947 8.91233766,0.589471368 L8.91233766,15.1320633 C8.91233766,20.1465916 13.1189308,24.2280776 18.2889016,24.2280776 C23.4612108,24.2280776 27.6689731,20.1465916 27.6689731,15.1320633 L27.6689731,3.28058627 C27.6689731,3.21968572 27.6350678,3.1610833 27.5801178,3.1369529 Z M26.8670125,20.7412072 C26.7617892,20.6136608 26.5150991,20.6217042 26.4051992,20.82394 C24.7847606,23.8023217 21.2609496,25.4811086 17.7348004,25.3466677 C10.0125803,25.0548047 7.33640137,19.657637 7.33640137,14.6729844 L7.33640137,13.7296004 L7.33640137,0.794553237 C7.33640137,0.74744149 7.31535671,0.700329743 7.26975995,0.670454001 C7.23117808,0.641727326 7.17856644,0.63253479 7.13063139,0.641727326 C4.68945114,1.17834161 2.32192719,2.00566985 0.0888552198,3.10532696 C0.0339052812,3.13520271 0,3.18461259 0,3.2466622 L0,15.4026419 C0.634847162,26.964554 13.0359961,29.672905 13.4767647,29.672905 C13.8579068,29.6694578 23.1339241,28.5870366 26.490547,21.9959884 C26.5080842,21.9534729 26.5291288,21.9109574 26.5513426,21.8672929 C26.5864171,21.7983488 26.6133075,21.732852 26.6437053,21.6731005 C26.6974861,21.5627901 26.7500977,21.4524797 26.8027094,21.338722 C26.7945254,21.3490636 26.7804956,21.3628524 26.7734807,21.3766412 C26.8576593,21.1767036 26.8985795,21.0549025 26.9009178,21.0445609 C26.9465145,20.8894368 26.9079327,20.7952133 26.8670125,20.7412072 Z" id="Combined-Shape-Copy"></path>
                        </g>
                    </g>
                </g>
            </g>
        </g>
    </g>
</svg>